<?xml version="1.0" standalone="no"?>
<!DOCTYPE svg PUBLIC "-//W3C//DTD SVG 20010904//EN"
 "http://www.w3.org/TR/2001/REC-SVG-20010904/DTD/svg10.dtd">
<svg version="1.0" xmlns="http://www.w3.org/2000/svg"
 width="500.000000pt" height="500.000000pt" viewBox="0 0 500.000000 500.000000"
 preserveAspectRatio="xMidYMid meet">
<metadata>
Created by potrace 1.14, written by Peter Selinger 2001-2017
</metadata>
<g transform="translate(0.000000,500.000000) scale(0.100000,-0.100000)"
fill="#000000" stroke="none">
<path d="M2433 4331 c-50 -23 -89 -85 -223 -356 -211 -427 -338 -905 -357
-1344 l-6 -144 -71 -71 c-45 -45 -85 -97 -108 -142 -66 -125 -68 -143 -68
-570 0 -210 3 -390 6 -399 10 -25 62 -47 95 -40 23 5 56 44 176 208 180 244
217 286 291 325 76 41 153 52 357 52 178 0 235 -9 310 -48 65 -32 110 -84 277
-314 87 -118 166 -218 177 -221 33 -8 71 4 91 31 19 24 20 41 20 406 0 422 -4
459 -62 570 -18 34 -64 93 -103 133 l-71 72 -12 168 c-35 496 -151 931 -362
1358 -120 242 -159 301 -213 325 -53 25 -91 25 -144 1z"/>
<path d="M2170 1552 l-30 -30 0 -412 0 -411 25 -24 c31 -32 75 -32 112 -1 l28
24 0 416 c0 402 -1 416 -20 435 -11 11 -34 23 -52 27 -27 5 -37 1 -63 -24z"/>
<path d="M2451 1553 l-31 -28 -1 -263 c0 -287 3 -305 56 -318 31 -8 82 12 95
37 6 10 10 132 10 282 0 294 -1 299 -67 312 -26 5 -37 1 -62 -22z"/>
<path d="M2743 1570 c-12 -5 -26 -18 -32 -29 -7 -13 -11 -159 -11 -431 l0
-411 25 -24 c32 -33 78 -33 110 0 l25 24 0 414 c0 380 -1 417 -17 436 -21 24
-68 35 -100 21z"/>
</g>
</svg>
